<?xml version="1.0" standalone="no"?><svg xmlns="http://www.w3.org/2000/svg" viewBox="0 0 1440 320"><path fill="rgb(100, 241, 18)" fill-opacity="1" d="M0,160L17.1,138.7C34.3,117,69,75,103,53.3C137.1,32,171,32,206,64C240,96,274,160,309,170.7C342.9,181,377,139,411,112C445.7,85,480,75,514,69.3C548.6,64,583,64,617,85.3C651.4,107,686,149,720,138.7C754.3,128,789,64,823,53.3C857.1,43,891,85,926,96C960,107,994,85,1029,80C1062.9,75,1097,85,1131,85.3C1165.7,85,1200,75,1234,80C1268.6,85,1303,107,1337,128C1371.4,149,1406,171,1423,181.3L1440,192L1440,0L1422.9,0C1405.7,0,1371,0,1337,0C1302.9,0,1269,0,1234,0C1200,0,1166,0,1131,0C1097.1,0,1063,0,1029,0C994.3,0,960,0,926,0C891.4,0,857,0,823,0C788.6,0,754,0,720,0C685.7,0,651,0,617,0C582.9,0,549,0,514,0C480,0,446,0,411,0C377.1,0,343,0,309,0C274.3,0,240,0,206,0C171.4,0,137,0,103,0C68.6,0,34,0,17,0L0,0Z"></path></svg>