<?xml version="1.0" standalone="no"?><svg xmlns="http://www.w3.org/2000/svg" viewBox="0 0 1440 320"><path fill="rgb(100, 241, 18)" fill-opacity="1" d="M0,96L21.8,128C43.6,160,87,224,131,224C174.5,224,218,160,262,122.7C305.5,85,349,75,393,90.7C436.4,107,480,149,524,138.7C567.3,128,611,64,655,80C698.2,96,742,192,785,208C829.1,224,873,160,916,160C960,160,1004,224,1047,213.3C1090.9,203,1135,117,1178,90.7C1221.8,64,1265,96,1309,122.7C1352.7,149,1396,171,1418,181.3L1440,192L1440,320L1418.2,320C1396.4,320,1353,320,1309,320C1265.5,320,1222,320,1178,320C1134.5,320,1091,320,1047,320C1003.6,320,960,320,916,320C872.7,320,829,320,785,320C741.8,320,698,320,655,320C610.9,320,567,320,524,320C480,320,436,320,393,320C349.1,320,305,320,262,320C218.2,320,175,320,131,320C87.3,320,44,320,22,320L0,320Z"></path></svg>